Coordinates
version=1
nRows=54
nColumns=12
inDegrees=yes

Units are S.I. units (second, meters, Newtons, ...)
Angles are in degrees

endheader
time	SC_y	SC_z	SC_x	AC_y	AC_z	AC_x	GH_y	GH_z	GH_yy	EL_x	PS_y
       0.0              -55.69         -4.155          32.48           57.7         -8.266         -15.38         -166.7          75.05          121.0          126.4          157.0
   0.02119              -55.69         -4.153          32.48           57.7         -8.263         -15.38         -166.7          75.04          121.0          126.4          157.0
   0.04239              -55.68         -4.151          32.49           57.7          -8.26         -15.37         -166.6          75.03          121.0          126.4          156.9
   0.06358              -55.68         -4.149           32.5           57.7         -8.257         -15.37         -166.6          75.02          121.0          126.4          156.9
   0.08477              -55.68         -4.147           32.5          57.69         -8.254         -15.37         -166.5          75.01          121.0          126.4          156.9
     0.106              -55.68         -4.144          32.51          57.69         -8.251         -15.36         -166.4          74.99          121.0          126.3          156.9
    0.1272              -55.67         -4.141          32.52          57.69         -8.247         -15.36         -166.4          74.98          121.0          126.3          156.8
    0.1484              -55.67         -4.139          32.53          57.69         -8.243         -15.36         -166.3          74.97          121.0          126.3          156.8
    0.1695              -55.67         -4.136          32.54          57.68         -8.239         -15.35         -166.3          74.95          121.0          126.3          156.8
    0.1907              -55.66         -4.132          32.55          57.68         -8.235         -15.35         -166.2          74.93          121.0          126.2          156.7
    0.2119              -55.66         -4.129          32.56          57.68          -8.23         -15.34         -166.1          74.91          121.0          126.2          156.7
    0.2331              -55.66         -4.125          32.57          57.67         -8.225         -15.34         -166.0          74.89          121.0          126.2          156.7
    0.2543              -55.65         -4.121          32.58          57.67          -8.22         -15.33         -165.9          74.87          121.0          126.1          156.6
    0.2755              -55.65         -4.117           32.6          57.67         -8.214         -15.32         -165.8          74.85          121.0          126.1          156.6
    0.2967              -55.64         -4.112          32.61          57.66         -8.208         -15.32         -165.7          74.82          121.0          126.1          156.5
    0.3179              -55.64         -4.107          32.63          57.66         -8.201         -15.31         -165.6          74.79          121.0          126.0          156.5
    0.3391              -55.63         -4.101          32.64          57.65         -8.193          -15.3         -165.5          74.76          121.0          126.0          156.4
    0.3603              -55.62         -4.095          32.66          57.65         -8.185         -15.29         -165.3          74.73          121.0          125.9          156.3
    0.3815              -55.62         -4.088          32.68          57.64         -8.176         -15.29         -165.2          74.69          121.0          125.9          156.2
    0.4027              -55.61         -4.081          32.71          57.63         -8.167         -15.28         -165.0          74.65          121.1          125.8          156.2
    0.4239               -55.6         -4.073          32.73          57.63         -8.156         -15.26         -164.8          74.61          121.1          125.7          156.1
    0.4451              -55.59         -4.064          32.76          57.62         -8.144         -15.25         -164.6          74.56          121.1          125.7          156.0
    0.4663              -55.58         -4.055          32.79          57.61         -8.131         -15.24         -164.4          74.51          121.1          125.6          155.9
    0.4875              -55.57         -4.044          32.82           57.6         -8.117         -15.22         -164.2          74.45          121.1          125.5          155.8
    0.5086              -55.56         -4.032          32.86          57.59         -8.101         -15.21         -163.9          74.39          121.1          125.4          155.6
    0.5298              -55.54         -4.018           32.9          57.58         -8.083         -15.19         -163.6          74.31          121.1          125.3          155.5
     0.551              -55.53         -4.003          32.94          57.56         -8.063         -15.17         -163.3          74.23          121.1          125.1          155.3
    0.5722              -55.51         -3.987           33.0          57.55          -8.04         -15.14         -162.9          74.14          121.1          125.0          155.1
    0.5934              -55.49         -3.968          33.05          57.53         -8.015         -15.12         -162.4          74.04          121.1          124.8          154.9
    0.6146              -55.47         -3.946          33.12          57.51         -7.986         -15.09         -161.9          73.92          121.1          124.6          154.7
    0.6358              -55.44         -3.921           33.2          57.49         -7.953         -15.05         -161.4          73.79          121.1          124.4          154.4
     0.657              -55.41         -3.893          33.28          57.47         -7.915         -15.01         -160.7          73.64          121.1          124.2          154.1
    0.6782              -55.38          -3.86          33.39          57.44         -7.872         -14.97         -160.0          73.46          121.1          123.9          153.7
    0.6994              -55.34         -3.822           33.5           57.4         -7.821         -14.92         -159.1          73.25          121.2          123.6          153.3
    0.7206              -55.29         -3.778          33.64          57.36         -7.762         -14.85         -158.1          73.01          121.2          123.2          152.8
    0.7418              -55.23         -3.726           33.8          57.32         -7.692         -14.78         -156.9          72.73          121.2          122.8          152.2
     0.763              -55.17         -3.663          33.99          57.26         -7.609         -14.69         -155.5          72.39          121.2          122.2          151.5
    0.7842              -55.09         -3.589          34.22          57.19         -7.509         -14.59         -153.8          71.99          121.3          121.6          150.7
    0.8054              -54.99         -3.498           34.5          57.11         -7.388         -14.46         -151.8           71.5          121.3          120.8          149.7
    0.8265              -54.88         -3.388          34.84          57.01         -7.241         -14.31         -149.3           70.9          121.4          119.9          148.5
    0.8477              -54.73         -3.252          35.26          56.89         -7.059         -14.12         -146.2          70.17          121.4          118.7          147.0
    0.8689              -54.55         -3.082          35.78          56.74         -6.832         -13.89         -142.3          69.25          121.5          117.3          145.1
    0.8901              -54.33         -2.869          36.44          56.55         -6.547         -13.59         -137.5          68.09          121.6          115.4          142.7
    0.9113              -54.04         -2.597          37.27           56.3         -6.184         -13.21         -131.3          66.62          121.7          113.1          139.7
    0.9325              -53.67         -2.249          38.35          55.99         -5.719         -12.73         -123.4          64.74          121.9          110.1          135.8
    0.9537               -53.2         -1.803          39.72          55.59         -5.123         -12.11         -113.3          62.32          122.1          106.3          130.9
    0.9749              -52.59         -1.233          41.48          55.08         -4.361         -11.31         -100.3          59.23          122.3          101.5          124.5
    0.9961              -51.84        -0.5158          43.68          54.44         -3.403         -10.32         -84.02          55.35          122.7          95.33          116.6
     1.017              -50.91         0.3578          46.37          53.66         -2.236           -9.1         -64.18          50.63          123.0          87.86          106.9
     1.038              -49.84           1.37          49.49          52.75        -0.8833         -7.692         -41.17          45.14          123.5          79.21          95.61
      1.06              -48.68          2.467          52.87          51.77         0.5816         -6.167         -16.27          39.21          124.0          69.84          83.43
     1.081              -47.52          3.563          56.24          50.78          2.046         -4.641          8.642          33.27          124.5          60.47          71.24
     1.102              -46.44          4.576          59.36          49.88          3.399         -3.233          31.65          27.79          124.9          51.81           60.0
     1.123              -45.52          5.449          62.05          49.09          4.567         -2.017          51.49          23.06          125.3          44.34          50.29
